{
  "accessors": [
    {
      "bufferView": 2,
      "componentType": 5126,
      "count": 4,
      "max": [
        18.467899322509766,
        -38.05080032348633,
        18.586599349975586
      ],
      "min": [
        -16.68899917602539,
        -38.05080032348633,
        -16.57029914855957
      ],
      "type": "VEC3"
    },
    {
      "bufferView": 2,
      "byteOffset": 48,
      "componentType": 5126,
      "count": 4,
      "max": [
        0.0,
        -1.0,
        0.0
      ],
      "min": [
        0.0,
        -1.0,
        0.0
      ],
      "type": "VEC3"
    },
    {
      "bufferView": 1,
      "componentType": 5126,
      "count": 4,
      "max": [
        0.9626169800758362,
        0.9744619727134705
      ],
      "min": [
        0.042931001633405685,
        0.05477000027894974
      ],
      "type": "VEC2"
    },
    {
      "bufferView": 0,
      "componentType": 5125,
      "count": 6,
      "type": "SCALAR"
    },
    {
      "bufferView": 2,
      "byteOffset": 96,
      "componentType": 5126,
      "count": 4217,
      "max": [
        100.0,
        68.94380187988281,
        96.10189819335938
      ],
      "min": [
        -100.0,
        -68.94380187988281,
        -96.10189819335938
      ],
      "type": "VEC3"
    },
    {
      "bufferView": 2,
      "byteOffset": 50700,
      "componentType": 5126,
      "count": 4217,
      "max": [
        1.0,
        1.0,
        1.0
      ],
      "min": [
        -1.0,
        -1.0,
        -1.0
      ],
      "type": "VEC3"
    },
    {
      "bufferView": 3,
      "componentType": 5126,
      "count": 4217,
      "max": [
        1.0,
        1.0,
        1.0,
        1.0
      ],
      "min": [
        -1.0,
        -0.9999998807907104,
        -1.0,
        -1.0
      ],
      "type": "VEC4"
    },
    {
      "bufferView": 1,
      "byteOffset": 32,
      "componentType": 5126,
      "count": 4217,
      "max": [
        0.9653319716453552,
        0.9900000095367432
      ],
      "min": [
        0.009999999776482582,
        0.009999999776482582
      ],
      "type": "VEC2"
    },
    {
      "bufferView": 0,
      "byteOffset": 24,
      "componentType": 5125,
      "count": 9930,
      "type": "SCALAR"
    },
    {
      "bufferView": 2,
      "byteOffset": 101304,
      "componentType": 5126,
      "count": 562,
      "max": [
        53.75080108642578,
        51.39699935913086,
        53.86949920654297
      ],
      "min": [
        -51.971900939941406,
        -48.909202575683594,
        -51.85319900512695
      ],
      "type": "VEC3"
    },
    {
      "bufferView": 2,
      "byteOffset": 108048,
      "componentType": 5126,
      "count": 562,
      "max": [
        1.0,
        0.9969253540039063,
        1.0
      ],
      "min": [
        -1.0,
        -0.9962378740310669,
        -1.0
      ],
      "type": "VEC3"
    },
    {
      "bufferView": 3,
      "byteOffset": 67472,
      "componentType": 5126,
      "count": 562,
      "max": [
        0.8944606781005859,
        0.9991137385368347,
        0.9977078437805176,
        1.0
      ],
      "min": [
        -0.8974868655204773,
        -0.7027050852775574,
        -0.9999986290931702,
        1.0
      ],
      "type": "VEC4"
    },
    {
      "bufferView": 1,
      "byteOffset": 33768,
      "componentType": 5126,
      "count": 562,
      "max": [
        0.7814419865608215,
        0.9900000095367432
      ],
      "min": [
        0.009999999776482582,
        0.13297900557518005
      ],
      "type": "VEC2"
    },
    {
      "bufferView": 0,
      "byteOffset": 39744,
      "componentType": 5125,
      "count": 2610,
      "type": "SCALAR"
    }
  ],
  "asset": {
    "extras": {
      "author": "dark-minaz (https://sketchfab.com/dark-minaz)",
      "license": "CC-BY-4.0 (http://creativecommons.org/licenses/by/4.0/)",
      "source": "https://sketchfab.com/3d-models/destiny-ghost-follower-giveaway-723d462abb744d4f9abcfe30a66f5e7f",
      "title": "Destiny - Ghost [Follower Giveaway]"
    },
    "generator": "Sketchfab-12.67.0",
    "version": "2.0"
  },
  "bufferViews": [
    {
      "buffer": 0,
      "byteLength": 50184,
      "name": "floatBufferViews",
      "target": 34963
    },
    {
      "buffer": 0,
      "byteLength": 38264,
      "byteOffset": 50184,
      "byteStride": 8,
      "name": "floatBufferViews",
      "target": 34962
    },
    {
      "buffer": 0,
      "byteLength": 114792,
      "byteOffset": 88448,
      "byteStride": 12,
      "name": "floatBufferViews",
      "target": 34962
    },
    {
      "buffer": 0,
      "byteLength": 76464,
      "byteOffset": 203240,
      "byteStride": 16,
      "name": "floatBufferViews",
      "target": 34962
    }
  ],
  "buffers": [
    {
      "byteLength": 279704,
      "uri": "scene.bin"
    }
  ],
  "images": [
    {
      "uri": "textures/GhostCube_baseColor.jpeg"
    },
    {
      "uri": "textures/GhostCube_metallicRoughness.png"
    },
    {
      "uri": "textures/GhostCube_normal.png"
    },
    {
      "uri": "textures/bluepower_baseColor.jpeg"
    },
    {
      "uri": "textures/bluepower_metallicRoughness.png"
    },
    {
      "uri": "textures/bluepower_emissive.jpeg"
    }
  ],
  "materials": [
    {
      "doubleSided": true,
      "name": "GhostCube",
      "normalTexture": {
        "index": 2
      },
      "occlusionTexture": {
        "index": 1
      },
      "pbrMetallicRoughness": {
        "baseColorTexture": {
          "index": 0
        },
        "metallicRoughnessTexture": {
          "index": 1
        }
      }
    },
    {
      "doubleSided": true,
      "emissiveFactor": [
        1.0,
        1.0,
        1.0
      ],
      "emissiveTexture": {
        "index": 5
      },
      "name": "bluepower",
      "pbrMetallicRoughness": {
        "baseColorTexture": {
          "index": 3
        },
        "metallicRoughnessTexture": {
          "index": 4
        }
      }
    }
  ],
  "meshes": [
    {
      "name": "Object_0",
      "primitives": [
        {
          "attributes": {
            "NORMAL": 1,
            "POSITION": 0,
            "TEXCOORD_0": 2
          },
          "indices": 3,
          "material": 1,
          "mode": 4
        }
      ]
    },
    {
      "name": "Object_1",
      "primitives": [
        {
          "attributes": {
            "NORMAL": 5,
            "POSITION": 4,
            "TANGENT": 6,
            "TEXCOORD_0": 7
          },
          "indices": 8,
          "material": 0,
          "mode": 4
        }
      ]
    },
    {
      "name": "Object_2",
      "primitives": [
        {
          "attributes": {
            "NORMAL": 10,
            "POSITION": 9,
            "TANGENT": 11,
            "TEXCOORD_0": 12
          },
          "indices": 13,
          "material": 0,
          "mode": 4
        }
      ]
    }
  ],
  "nodes": [
    {
      "children": [
        1
      ],
      "matrix": [
        1.0,
        0.0,
        0.0,
        0.0,
        0.0,
        2.220446049250313e-16,
        -1.0,
        0.0,
        0.0,
        1.0,
        2.220446049250313e-16,
        0.0,
        0.0,
        0.0,
        0.0,
        1.0
      ],
      "name": "Sketchfab_model"
    },
    {
      "children": [
        2,
        3,
        4
      ],
      "name": "Ghost.obj.cleaner.materialmerger.gles"
    },
    {
      "mesh": 0,
      "name": "Object_2"
    },
    {
      "mesh": 1,
      "name": "Object_3"
    },
    {
      "mesh": 2,
      "name": "Object_4"
    }
  ],
  "samplers": [
    {
      "magFilter": 9729,
      "minFilter": 9987,
      "wrapS": 10497,
      "wrapT": 10497
    }
  ],
  "scene": 0,
  "scenes": [
    {
      "name": "Sketchfab_Scene",
      "nodes": [
        0
      ]
    }
  ],
  "textures": [
    {
      "sampler": 0,
      "source": 0
    },
    {
      "sampler": 0,
      "source": 1
    },
    {
      "sampler": 0,
      "source": 2
    },
    {
      "sampler": 0,
      "source": 3
    },
    {
      "sampler": 0,
      "source": 4
    },
    {
      "sampler": 0,
      "source": 5
    }
  ]
}
